<svg id="圖層_1" data-name="圖層 1" xmlns="http://www.w3.org/2000/svg" viewBox="0 0 50 15.42"><defs><style>.cls-1{fill:#ec6618;}</style></defs><path class="cls-1" d="M1,8.86V3.26A1.18,1.18,0,0,1,2.18,2.08h.1A1.18,1.18,0,0,1,3.47,3.26V9.08c0,2.57.88,3.44,2.33,3.44s2.4-.87,2.4-3.44V3.26A1.18,1.18,0,0,1,9.39,2.08h0a1.18,1.18,0,0,1,1.18,1.18v5.6c0,4.11-1.75,5.79-4.77,5.79S1,13,1,8.86Z"/><path class="cls-1" d="M14.42,5.08h0A1.09,1.09,0,0,1,15.5,6.15v.18h.07a3.93,3.93,0,0,1,2.87-1.48A2.55,2.55,0,0,1,21,6.48a4.13,4.13,0,0,1,3-1.63c2,0,2.9,1.4,2.9,3.75v4.6a1.22,1.22,0,0,1-1.21,1.22h0a1.22,1.22,0,0,1-1.22-1.22V8.9C24.42,7.46,24,7,23.12,7a1.63,1.63,0,0,0-.55.11,2.1,2.1,0,0,0-1.25,2V13.2a1.22,1.22,0,0,1-1.21,1.22h0a1.22,1.22,0,0,1-1.22-1.22V8.9c0-1.44-.41-1.95-1.3-1.95a1.58,1.58,0,0,0-.55.11,2.1,2.1,0,0,0-1.25,2V13.2a1.22,1.22,0,0,1-1.22,1.22h0a1.22,1.22,0,0,1-1.21-1.22v-7A1.08,1.08,0,0,1,14.42,5.08Z"/><path class="cls-1" d="M28.94,11.88c0-1.88,1.43-2.92,4.73-3.37a.63.63,0,0,0,.49-.86,1.38,1.38,0,0,0-1.43-.84,4.23,4.23,0,0,0-1.79.47.93.93,0,0,1-1.22-.39h0a.93.93,0,0,1,.41-1.28,6.88,6.88,0,0,1,3.05-.76c2.36,0,3.58,1.41,3.58,4.11v4.42a1,1,0,0,1-1,1h-.12a1,1,0,0,1-1-1h0a4.39,4.39,0,0,1-2.82,1.23A2.65,2.65,0,0,1,28.94,11.88Zm5.37-.58v-.76A.52.52,0,0,0,33.7,10c-1.8.32-2.42.9-2.42,1.65s.51,1.05,1.23,1.05a2.06,2.06,0,0,0,1.35-.51A1.18,1.18,0,0,0,34.31,11.3Z"/><path class="cls-1" d="M40.48,6.06h0A1.22,1.22,0,0,1,41.7,7.27V13.2a1.22,1.22,0,0,1-1.22,1.22h0a1.22,1.22,0,0,1-1.22-1.22V7.27A1.22,1.22,0,0,1,40.48,6.06Z"/><path class="cls-1" d="M44,13a1.4,1.4,0,1,1,2.79,0,1.42,1.42,0,0,1-1.4,1.47A1.41,1.41,0,0,1,44,13ZM47.52.8h0A1.78,1.78,0,0,1,49,3L47.29,10a1.36,1.36,0,0,1-1.56,1h0a1.36,1.36,0,0,1-1.12-1.5l.83-7.21A1.78,1.78,0,0,1,47.52.8Z"/><circle class="cls-1" cx="40.49" cy="3.96" r="1.46"/></svg>