<svg id="圖層_1" data-name="圖層 1" xmlns="http://www.w3.org/2000/svg" viewBox="0 0 50 27.14"><defs><style>.cls-1{fill:#ec6618;}</style></defs><path class="cls-1" d="M1.08,9V3.39A1.18,1.18,0,0,1,2.26,2.21h.1A1.18,1.18,0,0,1,3.54,3.39V9.2c0,2.56.89,3.43,2.33,3.43s2.4-.87,2.4-3.43V3.39A1.18,1.18,0,0,1,9.45,2.21h0a1.18,1.18,0,0,1,1.18,1.18V9c0,4.1-1.74,5.78-4.76,5.78S1.08,13.08,1.08,9Z"/><path class="cls-1" d="M14.48,5.2h0a1.09,1.09,0,0,1,1.08,1.07v.18h.07A3.92,3.92,0,0,1,18.49,5,2.54,2.54,0,0,1,21.05,6.6,4.14,4.14,0,0,1,24,5c2,0,2.89,1.4,2.89,3.75v4.59a1.22,1.22,0,0,1-1.21,1.22h0a1.22,1.22,0,0,1-1.22-1.22V9c0-1.44-.41-1.95-1.29-1.95a1.45,1.45,0,0,0-.56.12,2.08,2.08,0,0,0-1.24,1.94v4.18a1.22,1.22,0,0,1-1.22,1.22h0a1.22,1.22,0,0,1-1.22-1.22V9c0-1.44-.41-1.95-1.3-1.95a1.44,1.44,0,0,0-.55.12,2.06,2.06,0,0,0-1.24,1.94v4.18a1.22,1.22,0,0,1-1.22,1.22h0a1.22,1.22,0,0,1-1.21-1.22v-7A1.08,1.08,0,0,1,14.48,5.2Z"/><path class="cls-1" d="M29,12c0-1.88,1.43-2.92,4.71-3.37a.62.62,0,0,0,.49-.86,1.37,1.37,0,0,0-1.43-.83A4.2,4.2,0,0,0,31,7.4.93.93,0,0,1,29.75,7h0a.93.93,0,0,1,.41-1.28,6.87,6.87,0,0,1,3-.76c2.37,0,3.58,1.42,3.58,4.11v4.41a1,1,0,0,1-1,1h-.12a1,1,0,0,1-1-1h-.05a4.37,4.37,0,0,1-2.81,1.23A2.64,2.64,0,0,1,29,12Zm5.36-.58v-.77a.53.53,0,0,0-.61-.51c-1.8.33-2.42.9-2.42,1.66s.51,1,1.23,1a2.1,2.1,0,0,0,1.35-.51A1.16,1.16,0,0,0,34.34,11.42Z"/><path class="cls-1" d="M40.49,6.18h0A1.22,1.22,0,0,1,41.71,7.4v5.91a1.22,1.22,0,0,1-1.22,1.22h0a1.22,1.22,0,0,1-1.21-1.22V7.4A1.22,1.22,0,0,1,40.49,6.18Z"/><path class="cls-1" d="M44,13.06a1.4,1.4,0,1,1,2.8,0,1.4,1.4,0,1,1-2.8,0ZM47.52.93h0A1.79,1.79,0,0,1,49,3.1l-1.66,7.05a1.35,1.35,0,0,1-1.55,1h0a1.37,1.37,0,0,1-1.12-1.5l.82-7.2A1.78,1.78,0,0,1,47.52.93Z"/><path class="cls-1" d="M1.74,23.64H1V23h.82L2,21.68H1.19V21h.87l.22-1.71h.59L2.67,21H3.85l.22-1.71h.6L4.46,21h.77v.65H4.38L4.22,23H5v.65H4.14l-.23,1.91H3.3l.23-1.91H2.35l-.23,1.91H1.51ZM3.61,23l.16-1.31H2.58L2.42,23Z"/><path class="cls-1" d="M11.5,20.6a16.54,16.54,0,0,1-1.69.28c-.08.37-.17.74-.27,1.1a25,25,0,0,1-1.32,3.89l-.94-.32a18.73,18.73,0,0,0,1.43-3.78c.08-.26.14-.54.2-.81l-.67,0c-.39,0-.7,0-1,0l0-.83a8.09,8.09,0,0,0,1,.07,8.39,8.39,0,0,0,.84,0c.05-.25.09-.47.11-.62a4.11,4.11,0,0,0,0-.77l1,.08c-.06.21-.13.55-.16.72l-.1.5a14.4,14.4,0,0,0,1.51-.29Zm-.26,2.87a3.14,3.14,0,0,0-.12.74c0,.38.2.72,1.28.72a9.78,9.78,0,0,0,1.69-.17l0,.86a11.35,11.35,0,0,1-1.67.12c-1.37,0-2.08-.45-2.08-1.29a5.38,5.38,0,0,1,.13-1.05Zm-.33-2.08a15.09,15.09,0,0,1,1.57-.08,12.12,12.12,0,0,1,1.48.08l0,.8a12.34,12.34,0,0,0-1.43-.1,13.73,13.73,0,0,0-1.59.09Z"/><path class="cls-1" d="M17.18,23a3,3,0,0,0-.16.92c0,.59.59,1,1.88,1a11.29,11.29,0,0,0,2.92-.33v.93a12.68,12.68,0,0,1-2.91.29c-1.8,0-2.78-.61-2.78-1.7a5.09,5.09,0,0,1,.17-1.2Zm-.51-3.48a20.8,20.8,0,0,0,2.26.11,23.12,23.12,0,0,0,2.35-.12v.88c-.58.05-1.56.11-2.34.11s-1.59,0-2.27-.1Z"/><path class="cls-1" d="M24.65,20.24a4.57,4.57,0,0,1-.44,2.22l-.52-.24a4.23,4.23,0,0,0,.42-2.06Zm1.54,4.91c-.16-.29-.48-.75-.76-1.14a5,5,0,0,1-1.19,2.22,3.06,3.06,0,0,0-.53-.55A6,6,0,0,0,25,21.35V18.46h.72v2.89a13.94,13.94,0,0,1-.1,1.83c.29.33,1,1.2,1.15,1.41Zm.73-5.09c-.25.58-.51,1.28-.74,1.73l-.47-.22a12.32,12.32,0,0,0,.56-1.75Zm3.86,5.44c.17,0,.2-.12.22-.89a2.12,2.12,0,0,0,.65.29c-.06,1-.26,1.26-.79,1.26h-.71c-.68,0-.83-.21-.83-.89V23.6h-.84c-.11,1.37-.45,2.16-1.93,2.62a2,2,0,0,0-.42-.59,1.85,1.85,0,0,0,1.6-2H26.56v-.68h.88V22h-.92v-.66h.92v-1h.71v1h1.74v-1h.73v1h.94V22h-.94v.94h.91v.68H30.06v1.67c0,.2,0,.23.21.23Zm-2.14-5.57H26.87v-.67h1.77V18.4h.76v.86h1.84v.67H29.4v.9h-.76Zm-.49,3h1.74V22H28.15Z"/><path class="cls-1" d="M39.55,21.62a10.7,10.7,0,0,1-1.38.34c.23.5.49,1,.73,1.5l-.4.51c-.44-.09-1.19-.19-1.73-.26l.07-.65,1,.11c-.14-.33-.3-.7-.47-1.07a20.8,20.8,0,0,1-3.74.07l0-.78a17.43,17.43,0,0,0,3.47,0l-.23-.53-.2-.45a17,17,0,0,1-2.93,0l-.06-.78a14.67,14.67,0,0,0,2.68.09l-.07-.14a5.55,5.55,0,0,0-.35-.66l1-.2a7.23,7.23,0,0,0,.29.91,11.07,11.07,0,0,0,1.65-.4l.14.75a10,10,0,0,1-1.51.34l.16.36.27.62a9.72,9.72,0,0,0,1.53-.41Zm-4.8,1.67a3,3,0,0,0-.2.85c0,.59.46,1,1.61,1a10.78,10.78,0,0,0,2.14-.19l0,.85a12.15,12.15,0,0,1-2.09.17c-1.54,0-2.46-.53-2.46-1.63a4.07,4.07,0,0,1,.19-1.09Z"/><path class="cls-1" d="M48.62,25.36V26H42.34v-.64h2.72v-.78H43V24h2.11v-.64a9.55,9.55,0,0,0-2,.21,4.08,4.08,0,0,0-.24-.69,1.09,1.09,0,0,0,.48-.26A6,6,0,0,0,44,22H42.56a9,9,0,0,1-1,4.26,2.85,2.85,0,0,0-.71-.4,9.15,9.15,0,0,0,.9-4.61V18.82h6.36v2H42.58v.52h5.81V22H46.81a10.92,10.92,0,0,1,1.55,1.33l-.63.4a5.49,5.49,0,0,0-.49-.52l-1.41.09V24H48v.63H45.83v.78Zm-6-5.89v.7h4.77v-.7ZM45,22a10.38,10.38,0,0,1-.86.76l2.42-.12-.5-.4.4-.24Z"/><circle class="cls-1" cx="40.5" cy="4.09" r="1.46"/></svg>