<svg id="圖層_1" data-name="圖層 1" xmlns="http://www.w3.org/2000/svg" viewBox="0 0 80 12.98"><defs><style>.cls-1{fill:#ec6618;}</style></defs><path class="cls-1" d="M1,7.27V2.8a.94.94,0,0,1,1-.95H2A.94.94,0,0,1,3,2.8V7.44c0,2.05.71,2.75,1.86,2.75s1.92-.7,1.92-2.75V2.8a1,1,0,0,1,1-.95h0a.94.94,0,0,1,.94.95V7.27c0,3.28-1.4,4.62-3.81,4.62S1,10.55,1,7.27Z"/><path class="cls-1" d="M11.72,4.25h0a.86.86,0,0,1,.86.85v.15h.06a3.11,3.11,0,0,1,2.29-1.19A2,2,0,0,1,17,5.37a3.32,3.32,0,0,1,2.37-1.31c1.58,0,2.31,1.12,2.31,3v3.67a1,1,0,0,1-1,1h0a1,1,0,0,1-1-1V7.3c0-1.15-.34-1.56-1-1.56a1.19,1.19,0,0,0-.44.09,1.67,1.67,0,0,0-1,1.56v3.34a1,1,0,0,1-1,1h0a1,1,0,0,1-1-1V7.3c0-1.15-.33-1.56-1-1.56a1.24,1.24,0,0,0-.45.09,1.66,1.66,0,0,0-1,1.56v3.34a1,1,0,0,1-1,1h0a1,1,0,0,1-1-1V5.11A.86.86,0,0,1,11.72,4.25Z"/><path class="cls-1" d="M23.32,9.68c0-1.5,1.14-2.33,3.77-2.69a.5.5,0,0,0,.39-.69,1.1,1.1,0,0,0-1.14-.67A3.32,3.32,0,0,0,24.91,6a.74.74,0,0,1-1-.32h0a.73.73,0,0,1,.32-1,5.5,5.5,0,0,1,2.44-.61c1.89,0,2.86,1.13,2.86,3.29v3.53a.83.83,0,0,1-.83.82h-.09a.82.82,0,0,1-.82-.79h0a3.57,3.57,0,0,1-2.25,1A2.12,2.12,0,0,1,23.32,9.68Zm4.28-.46V8.61a.41.41,0,0,0-.48-.41c-1.44.26-1.94.72-1.94,1.32s.41.84,1,.84A1.71,1.71,0,0,0,27.25,10,1,1,0,0,0,27.6,9.22Z"/><path class="cls-1" d="M32.53,5h0a1,1,0,0,1,1,1v4.73a1,1,0,0,1-1,1h0a1,1,0,0,1-1-1V6A1,1,0,0,1,32.53,5Z"/><path class="cls-1" d="M35.31,10.53a1.12,1.12,0,0,1,1.11-1.17,1.17,1.17,0,0,1,0,2.34A1.12,1.12,0,0,1,35.31,10.53ZM38.15.83h0A1.43,1.43,0,0,1,39.3,2.56L38,8.2A1.1,1.1,0,0,1,36.72,9h0a1.09,1.09,0,0,1-.89-1.2l.66-5.76A1.42,1.42,0,0,1,38.15.83Z"/><path class="cls-1" d="M41.5,10.1h-.6V9.58h.66l.13-1.05h-.64V8h.7l.18-1.36h.47L42.24,8h.94l.18-1.36h.48L43.67,8h.62v.52h-.68l-.13,1.05h.65v.52h-.71l-.18,1.53h-.49l.18-1.53H42l-.19,1.53h-.49ZM43,9.58l.13-1.05h-.95L42,9.58Z"/><path class="cls-1" d="M49.31,7.67c-.42.09-.9.17-1.36.22-.06.3-.13.6-.21.88a20.21,20.21,0,0,1-1.06,3.11l-.75-.25a14.5,14.5,0,0,0,1.14-3c.06-.2.12-.43.17-.64H46.7c-.32,0-.56,0-.81,0V7.27a6.59,6.59,0,0,0,.82.06l.68,0c0-.2.07-.37.08-.5a3.26,3.26,0,0,0,0-.61l.83.06a5.18,5.18,0,0,0-.13.58l-.09.4A12,12,0,0,0,49.31,7ZM49.1,10a2.28,2.28,0,0,0-.1.58c0,.31.16.58,1,.58A6.8,6.8,0,0,0,51.37,11l0,.69a8.4,8.4,0,0,1-1.33.1c-1.1,0-1.67-.36-1.67-1a4.13,4.13,0,0,1,.11-.85ZM48.83,8.3a12.1,12.1,0,0,1,1.26-.07,11.5,11.5,0,0,1,1.18.07l0,.64a9.87,9.87,0,0,0-1.14-.08,10.63,10.63,0,0,0-1.28.07Z"/><path class="cls-1" d="M53.85,9.56a2.45,2.45,0,0,0-.13.74c0,.47.47.8,1.5.8a9.11,9.11,0,0,0,2.34-.26v.75a10.56,10.56,0,0,1-2.33.23c-1.44,0-2.23-.48-2.23-1.36a4.24,4.24,0,0,1,.14-1Zm-.41-2.78a15.82,15.82,0,0,0,1.81.08c.65,0,1.38,0,1.88-.09v.71c-.46,0-1.25.08-1.87.08s-1.28,0-1.82-.07Z"/><path class="cls-1" d="M59.83,7.38a3.64,3.64,0,0,1-.36,1.77L59.05,9a3.48,3.48,0,0,0,.35-1.65Zm1.23,3.93c-.13-.23-.39-.6-.61-.91a4,4,0,0,1-1,1.77,3,3,0,0,0-.43-.44,4.82,4.82,0,0,0,1-3.46V6h.58V8.27a10.13,10.13,0,0,1-.08,1.46c.23.26.78,1,.92,1.13Zm.58-4.08c-.2.47-.41,1-.6,1.39l-.37-.17A9.27,9.27,0,0,0,61.12,7Zm3.09,4.36c.13,0,.16-.1.17-.71a1.7,1.7,0,0,0,.52.22c0,.82-.2,1-.63,1h-.57c-.54,0-.66-.16-.66-.71V10.07h-.67a2,2,0,0,1-1.55,2.09,1.54,1.54,0,0,0-.33-.47,1.49,1.49,0,0,0,1.28-1.62h-.94V9.52h.7V8.77h-.73V8.24h.73V7.47h.58v.77H64V7.47h.58v.77h.75v.53H64.6v.75h.73v.55H64.15V11.4c0,.17,0,.19.17.19ZM63,7.13H61.6V6.6H63V5.91h.61V6.6h1.47v.53H63.62v.72H63Zm-.38,2.39H64V8.77H62.63Z"/><path class="cls-1" d="M71.74,8.48a7.92,7.92,0,0,1-1.1.28c.19.39.39.83.58,1.19l-.32.41c-.35-.07-.94-.15-1.38-.2l0-.52.8.08c-.11-.26-.24-.56-.38-.85a16.27,16.27,0,0,1-3,.05l0-.62a13.44,13.44,0,0,0,2.77,0l-.18-.43-.16-.36a13.27,13.27,0,0,1-2.35,0l0-.62a12.24,12.24,0,0,0,2.14.07l-.05-.12a4.74,4.74,0,0,0-.28-.52l.76-.16a6.74,6.74,0,0,0,.24.72,7.38,7.38,0,0,0,1.31-.32l.12.6A7.21,7.21,0,0,1,70,7.42l.13.29c0,.12.13.29.21.49a6.75,6.75,0,0,0,1.23-.33ZM67.9,9.82a2.33,2.33,0,0,0-.15.68c0,.47.36.78,1.29.78a9.07,9.07,0,0,0,1.71-.15l0,.68a9.65,9.65,0,0,1-1.67.14c-1.24,0-2-.42-2-1.31a3.36,3.36,0,0,1,.15-.87Z"/><path class="cls-1" d="M79,11.48V12H74v-.51h2.17v-.63H74.46v-.5h1.69V9.84a7,7,0,0,0-1.58.17,3.71,3.71,0,0,0-.19-.56.81.81,0,0,0,.38-.21,3.9,3.9,0,0,0,.56-.48H74.15a7.19,7.19,0,0,1-.77,3.4,2.08,2.08,0,0,0-.57-.31,7.39,7.39,0,0,0,.72-3.69V6.24h5.09v1.6H74.17v.41h4.65v.51H77.56A9.29,9.29,0,0,1,78.8,9.82l-.51.32q-.15-.18-.39-.42l-1.13.08v.55H78.5v.5H76.77v.63ZM74.17,6.76v.56H78V6.76Zm2,2c-.21.21-.45.42-.68.61l1.93-.11L77,9l.32-.19Z"/><circle class="cls-1" cx="32.54" cy="3.36" r="1.17"/></svg>